<svg id="Слой_1" data-name="Слой 1" xmlns="http://www.w3.org/2000/svg" viewBox="0 0 3000 2000"><defs><style>.cls-1{fill:#fff;}.cls-2{fill:#ebf3fa;}.cls-3{fill:#d2e4ff;}.cls-4{fill:#aed3ff;}.cls-5{fill:#f99746;}.cls-6{fill:#98c6f4;}.cls-7{fill:#89bde8;}.cls-8{fill:#1c468a;}.cls-9{fill:#739af0;}.cls-10{fill:#9ec7ef;}.cls-11{fill:#2a4e96;}.cls-12{fill:#2e3552;}.cls-13{fill:#6292e8;}.cls-14{fill:#163560;}.cls-15{fill:#ffb27d;}.cls-16{fill:#fca56b;}.cls-17{fill:#82b378;}.cls-18{fill:#a8d29f;}.cls-19{fill:#ed975d;}.cls-20{fill:#a9453d;}.cls-21{fill:#ed7d2b;}.cls-22{fill:#d6600f;}.cls-23{fill:#233862;}.cls-24{fill:#ffa412;}.cls-25{fill:#2c3a64;}.cls-26{fill:#2b478b;}</style></defs><rect class="cls-1" width="3000" height="2000"/><rect class="cls-2" x="222.74" y="375.08" width="2588.56" height="1290.41"/><rect class="cls-3" x="222.74" y="1427.99" width="568.46" height="21.48"/><path class="cls-4" d="M629.71,956.29a3.58,3.58,0,0,1-3.58-3.58V913a5.69,5.69,0,0,0-5.69-5.69H533.13a12.85,12.85,0,0,1-12.84-12.84V864.63a12.85,12.85,0,0,1,12.84-12.84h36.25a3.58,3.58,0,0,1,0,7.16H533.13a5.69,5.69,0,0,0-5.68,5.68v29.88a5.69,5.69,0,0,0,5.68,5.68h87.31A12.86,12.86,0,0,1,633.29,913v39.67A3.58,3.58,0,0,1,629.71,956.29Z"/><rect class="cls-5" x="618.46" y="912.46" width="20.96" height="57.22" rx="6.04"/><path class="cls-4" d="M715.08,841.33V869.4a13.25,13.25,0,0,1-13.25,13.24H556.54A13.24,13.24,0,0,1,543.3,869.4V841.33a13.24,13.24,0,0,1,13.24-13.23H701.83A13.24,13.24,0,0,1,715.08,841.33Z"/><path class="cls-3" d="M715.08,841.33V851a13.24,13.24,0,0,1-13.25,13.23H556.54A13.24,13.24,0,0,1,543.3,851v-9.67a13.24,13.24,0,0,1,13.24-13.23H701.83A13.24,13.24,0,0,1,715.08,841.33Z"/><path class="cls-4" d="M377.58,956.29a3.58,3.58,0,0,1-3.58-3.58V913a5.69,5.69,0,0,0-5.69-5.69H281a12.85,12.85,0,0,1-12.84-12.84V864.63A12.85,12.85,0,0,1,281,851.79h36.24a3.58,3.58,0,0,1,0,7.16H281a5.69,5.69,0,0,0-5.68,5.68v29.88a5.69,5.69,0,0,0,5.68,5.68h87.31A12.86,12.86,0,0,1,381.16,913v39.67A3.58,3.58,0,0,1,377.58,956.29Z"/><rect class="cls-5" x="366.33" y="912.46" width="20.96" height="57.22" rx="6.04"/><path class="cls-4" d="M462.94,841.33V869.4a13.24,13.24,0,0,1-13.24,13.24H304.41a13.24,13.24,0,0,1-13.24-13.24V841.33a13.23,13.23,0,0,1,13.24-13.23H449.7A13.23,13.23,0,0,1,462.94,841.33Z"/><path class="cls-3" d="M462.94,841.33V851a13.23,13.23,0,0,1-13.24,13.23H304.41A13.23,13.23,0,0,1,291.17,851v-9.67a13.23,13.23,0,0,1,13.24-13.23H449.7A13.23,13.23,0,0,1,462.94,841.33Z"/><rect class="cls-3" x="775.86" y="518.69" width="25.52" height="1142.18"/><rect class="cls-3" x="222.74" y="518.69" width="568.46" height="21.48"/><rect class="cls-3" x="222.74" y="755.44" width="568.46" height="21.48"/><rect class="cls-3" x="222.74" y="992.19" width="568.46" height="21.48"/><rect class="cls-3" x="222.74" y="1228.94" width="568.46" height="21.48"/><rect class="cls-3" x="394.51" y="1057.98" width="20.06" height="78.53" rx="9.88"/><rect class="cls-3" x="365.55" y="1126.07" width="77.97" height="38.44" rx="9.88"/><rect class="cls-6" x="365.55" y="1145.29" width="77.97" height="48.16"/><path class="cls-6" d="M401.94,1067.64a2.6,2.6,0,1,1,2.6,2.59A2.59,2.59,0,0,1,401.94,1067.64Z"/><rect class="cls-3" x="278.66" y="1057.98" width="20.06" height="78.53" rx="9.88"/><rect class="cls-3" x="261.5" y="1126.07" width="54.37" height="38.44" rx="8.25"/><rect class="cls-6" x="261.5" y="1145.29" width="54.37" height="48.16"/><path class="cls-6" d="M286.09,1067.64a2.59,2.59,0,1,1,2.59,2.59A2.59,2.59,0,0,1,286.09,1067.64Z"/><rect class="cls-3" x="530.3" y="1057.98" width="20.06" height="78.53" rx="9.88"/><rect class="cls-3" x="493.21" y="1126.07" width="94.24" height="38.44" rx="10.87"/><rect class="cls-6" x="493.21" y="1145.29" width="94.24" height="48.16"/><path class="cls-6" d="M537.73,1067.64a2.6,2.6,0,1,1,2.6,2.59A2.59,2.59,0,0,1,537.73,1067.64Z"/><rect class="cls-3" x="669.37" y="1041.74" width="22.46" height="87.94" rx="11.07"/><rect class="cls-3" x="627.83" y="1117.99" width="105.54" height="43.05" rx="12.17"/><rect class="cls-6" x="627.83" y="1139.51" width="105.54" height="53.94"/><path class="cls-6" d="M677.7,1052.56a2.9,2.9,0,1,1,2.9,2.9A2.9,2.9,0,0,1,677.7,1052.56Z"/><rect class="cls-6" x="280.82" y="1347.35" width="98.85" height="81.09"/><rect class="cls-5" x="273.75" y="1347.35" width="110.7" height="6.1"/><path class="cls-7" d="M280.82,1359.07s26.59-5.63,49.43-5.63,49.43,5.63,49.43,5.63v-5.63H280.82Z"/><rect class="cls-3" x="280.82" y="1374.75" width="98.85" height="30.68"/><rect class="cls-6" x="411.33" y="1328.39" width="121.97" height="100.04"/><rect class="cls-8" x="402.6" y="1328.39" width="136.58" height="7.52"/><path class="cls-7" d="M411.33,1342.85s32.8-6.94,61-6.94,61,6.94,61,6.94v-6.94h-122Z"/><rect class="cls-3" x="411.33" y="1362.2" width="121.97" height="37.85"/><rect class="cls-6" x="580.96" y="1294.64" width="163.11" height="133.79"/><rect class="cls-9" x="569.29" y="1294.64" width="182.65" height="10.06"/><path class="cls-7" d="M581,1314s43.87-9.28,81.55-9.28,81.56,9.28,81.56,9.28v-9.28H581Z"/><rect class="cls-3" x="580.96" y="1339.85" width="163.11" height="50.62"/><path class="cls-4" d="M303.54,657.71h-.32a7.21,7.21,0,0,1-5.32-2.84c-9.67-11.66-4.74-59.71-.94-87.32a13.78,13.78,0,0,1,1.46-4.56,13.49,13.49,0,0,0-3-4.67c-.61-.49-.82-.35-1-.26-8.3,5.31-9.78,38.07-9.65,50.25l-2.84,0c-.05-4.64-.16-45.55,11-52.67a3.44,3.44,0,0,1,4.29.45,13.67,13.67,0,0,1,3.06,4.15,14,14,0,0,1,10.57-4.83H384a26.25,26.25,0,0,1,26.22,26.22v9.6h-2.84v-9.6A23.41,23.41,0,0,0,384,558.27H310.86a11.22,11.22,0,0,0-9.22,4.86c3.77,8.88,7,23.67,8.88,36.07,1.35,8.82,5.36,38.66.2,52.13C308.72,656.54,305.77,657.71,303.54,657.71ZM300,566.86c-.08.35-.15.71-.2,1.07-1.68,12.23-3.82,30.35-4.46,47.18-1,25.44,2.07,34.67,4.78,37.94a4.43,4.43,0,0,0,3.27,1.81c.72,0,2.91.15,4.71-4.55C314.35,633.93,307.13,586.79,300,566.86Z"/><rect class="cls-3" x="276.32" y="605.74" width="14.09" height="6.87"/><rect class="cls-3" x="278.53" y="612.01" width="1.77" height="9"/><rect class="cls-10" x="278.53" y="616.51" width="1.77" height="4.5"/><rect class="cls-3" x="286.42" y="612.01" width="1.77" height="9"/><rect class="cls-10" x="286.42" y="616.51" width="1.77" height="4.5"/><path class="cls-3" d="M330.82,744.47l-26.46-16.36a8.16,8.16,0,0,1-2.65-11.24L383.25,585a8.16,8.16,0,0,1,11.24-2.65L421,598.74A8.17,8.17,0,0,1,423.6,610L342.06,741.82A8.16,8.16,0,0,1,330.82,744.47Z"/><path class="cls-4" d="M360.65,639.61a14.23,14.23,0,1,1,4.61,19.59A14.23,14.23,0,0,1,360.65,639.61Z"/><path class="cls-3" d="M364.68,642.11a2.93,2.93,0,1,1,.95,4A2.92,2.92,0,0,1,364.68,642.11Z"/><path class="cls-3" d="M376.19,649.23a2.93,2.93,0,1,1,.95,4A2.93,2.93,0,0,1,376.19,649.23Z"/><path class="cls-4" d="M338.79,675a14.23,14.23,0,1,1,4.62,19.59A14.24,14.24,0,0,1,338.79,675Z"/><path class="cls-3" d="M342.82,677.45a2.93,2.93,0,1,1,1,4A2.94,2.94,0,0,1,342.82,677.45Z"/><path class="cls-3" d="M354.34,684.57a2.93,2.93,0,1,1,1,4A2.91,2.91,0,0,1,354.34,684.57Z"/><path class="cls-4" d="M316.93,710.29a14.23,14.23,0,1,1,4.62,19.59A14.23,14.23,0,0,1,316.93,710.29Z"/><path class="cls-3" d="M321,712.79a2.93,2.93,0,1,1,.95,4A2.93,2.93,0,0,1,321,712.79Z"/><path class="cls-3" d="M332.48,719.9a2.93,2.93,0,1,1,.95,4A2.93,2.93,0,0,1,332.48,719.9Z"/><path class="cls-4" d="M382.5,604.28a14.23,14.23,0,1,1,4.62,19.59A14.23,14.23,0,0,1,382.5,604.28Z"/><path class="cls-3" d="M386.54,606.77a2.93,2.93,0,1,1,.95,4A2.92,2.92,0,0,1,386.54,606.77Z"/><path class="cls-3" d="M398.05,613.89a2.93,2.93,0,1,1,.95,4A2.92,2.92,0,0,1,398.05,613.89Z"/><path class="cls-4" d="M479.34,670h-.27a6.25,6.25,0,0,1-4.58-2.45c-8.32-10-4.08-51.39-.81-75.16a11.86,11.86,0,0,1,1.26-3.92,11.63,11.63,0,0,0-2.57-4c-.52-.42-.71-.3-.83-.23-7.14,4.58-8.42,32.77-8.31,43.25l-2.44,0c0-4-.14-39.21,9.43-45.33a2.94,2.94,0,0,1,3.69.38,11.8,11.8,0,0,1,2.63,3.58,12.11,12.11,0,0,1,9.1-4.16h63A22.6,22.6,0,0,1,571.2,604.5v8.26h-2.44V604.5a20.15,20.15,0,0,0-20.13-20.12h-63a9.64,9.64,0,0,0-7.93,4.18c3.25,7.64,6,20.37,7.64,31,1.16,7.6,4.62,33.28.17,44.87C483.8,669,481.26,670,479.34,670Zm-3.07-78.19a9.32,9.32,0,0,0-.17.92c-1.45,10.53-3.29,26.12-3.84,40.61-.83,21.89,1.78,29.84,4.11,32.65a3.87,3.87,0,0,0,2.82,1.57c.61,0,2.5.12,4.05-3.92C488.65,649.5,482.44,608.92,476.27,591.77Z"/><rect class="cls-3" x="455.91" y="625.23" width="12.12" height="5.91"/><rect class="cls-3" x="457.82" y="630.63" width="1.52" height="7.74"/><rect class="cls-10" x="457.82" y="634.5" width="1.52" height="3.87"/><rect class="cls-3" x="464.61" y="630.63" width="1.52" height="7.74"/><rect class="cls-10" x="464.61" y="634.5" width="1.52" height="3.87"/><path class="cls-3" d="M522.74,714l-24.19-15a6.19,6.19,0,0,1-2-8.52l51.85-83.83a6.2,6.2,0,0,1,8.53-2l24.19,15a6.2,6.2,0,0,1,2,8.53L531.27,712A6.2,6.2,0,0,1,522.74,714Z"/><path class="cls-4" d="M528.5,654.39a12.25,12.25,0,1,1,4,16.86A12.24,12.24,0,0,1,528.5,654.39Z"/><path class="cls-3" d="M532,656.54a2.52,2.52,0,1,1,.82,3.47A2.52,2.52,0,0,1,532,656.54Z"/><path class="cls-3" d="M541.88,662.66a2.52,2.52,0,0,1,4.29,2.66,2.52,2.52,0,1,1-4.29-2.66Z"/><path class="cls-4" d="M509.68,684.8a12.25,12.25,0,1,1,4,16.87A12.26,12.26,0,0,1,509.68,684.8Z"/><path class="cls-3" d="M513.16,687a2.52,2.52,0,1,1,.82,3.47A2.53,2.53,0,0,1,513.16,687Z"/><path class="cls-3" d="M523.06,693.08a2.52,2.52,0,1,1,4.29,2.65,2.52,2.52,0,1,1-4.29-2.65Z"/><path class="cls-4" d="M547.31,624a12.25,12.25,0,1,1,4,16.87A12.25,12.25,0,0,1,547.31,624Z"/><path class="cls-3" d="M550.78,626.12a2.52,2.52,0,1,1,.82,3.47A2.53,2.53,0,0,1,550.78,626.12Z"/><path class="cls-3" d="M560.69,632.25a2.52,2.52,0,1,1,.82,3.47A2.52,2.52,0,0,1,560.69,632.25Z"/><path class="cls-4" d="M631.1,670h-.27a6.25,6.25,0,0,1-4.58-2.45c-8.32-10-4.08-51.39-.81-75.16a11.86,11.86,0,0,1,1.26-3.92,11.63,11.63,0,0,0-2.57-4c-.52-.42-.71-.3-.83-.23-7.14,4.58-8.42,32.77-8.31,43.25l-2.44,0c0-4-.14-39.21,9.43-45.33a2.94,2.94,0,0,1,3.69.38,11.8,11.8,0,0,1,2.63,3.58,12.11,12.11,0,0,1,9.1-4.16h63A22.6,22.6,0,0,1,723,604.5v8.26h-2.44V604.5a20.15,20.15,0,0,0-20.13-20.12h-63a9.64,9.64,0,0,0-7.93,4.18c3.25,7.64,6,20.37,7.64,31,1.16,7.6,4.62,33.28.17,44.87C635.56,669,633,670,631.1,670ZM628,591.77a9.32,9.32,0,0,0-.17.92c-1.45,10.53-3.29,26.12-3.84,40.61-.83,21.89,1.78,29.84,4.11,32.65a3.87,3.87,0,0,0,2.82,1.57c.61,0,2.5.12,4-3.92C640.41,649.5,634.2,608.92,628,591.77Z"/><rect class="cls-3" x="607.67" y="625.23" width="12.12" height="5.91"/><rect class="cls-3" x="609.58" y="630.63" width="1.52" height="7.74"/><rect class="cls-10" x="609.58" y="634.5" width="1.52" height="3.87"/><rect class="cls-3" x="616.37" y="630.63" width="1.52" height="7.74"/><rect class="cls-10" x="616.37" y="634.5" width="1.52" height="3.87"/><path class="cls-3" d="M691.75,687.71l-25.61-15.84a5.36,5.36,0,0,1-1.74-7.38L700.59,606a5.36,5.36,0,0,1,7.38-1.74l25.61,15.84a5.36,5.36,0,0,1,1.74,7.38L699.13,686A5.36,5.36,0,0,1,691.75,687.71Z"/><path class="cls-4" d="M680.25,654.39a12.25,12.25,0,1,1,4,16.86A12.25,12.25,0,0,1,680.25,654.39Z"/><path class="cls-3" d="M683.73,656.54a2.52,2.52,0,1,1,.82,3.47A2.52,2.52,0,0,1,683.73,656.54Z"/><path class="cls-3" d="M693.64,662.66a2.52,2.52,0,0,1,4.29,2.66,2.52,2.52,0,1,1-4.29-2.66Z"/><path class="cls-4" d="M699.07,624a12.25,12.25,0,1,1,4,16.87A12.25,12.25,0,0,1,699.07,624Z"/><path class="cls-3" d="M702.54,626.12a2.52,2.52,0,1,1,.82,3.47A2.53,2.53,0,0,1,702.54,626.12Z"/><path class="cls-3" d="M712.45,632.25a2.52,2.52,0,1,1,.82,3.47A2.52,2.52,0,0,1,712.45,632.25Z"/><rect class="cls-3" x="963.06" y="518.69" width="25.51" height="1142.18" transform="translate(1951.64 2179.55) rotate(180)"/><rect class="cls-3" x="1522.29" y="518.69" width="25.52" height="1142.18" transform="translate(3070.1 2179.55) rotate(180)"/><rect class="cls-3" x="973.24" y="518.69" width="568.46" height="21.48" transform="translate(2514.93 1058.85) rotate(180)"/><rect class="cls-3" x="973.24" y="755.44" width="568.46" height="21.48" transform="translate(2514.93 1532.35) rotate(180)"/><rect class="cls-3" x="973.24" y="992.19" width="568.46" height="21.48" transform="translate(2514.93 2005.85) rotate(180)"/><rect class="cls-3" x="973.24" y="1228.94" width="568.46" height="21.48" transform="translate(2514.93 2479.35) rotate(180)"/><polygon class="cls-3" points="1033.38 658.89 1223.57 594.83 1240.83 651.26 1027.49 701.48 1033.38 658.89"/><path class="cls-5" d="M1268.05,575.56l-41.24,11.08a10.56,10.56,0,0,0-7.44,12.9l13.51,50.28a10.56,10.56,0,0,0,12.9,7.44L1287,646.18a10.57,10.57,0,0,0,7.44-12.9L1281,583A10.55,10.55,0,0,0,1268.05,575.56Zm17.8,53.85a8.15,8.15,0,0,1-5.74,9.94l-31.78,8.54a8.14,8.14,0,0,1-9.94-5.73L1228,603.41a8.15,8.15,0,0,1,5.73-9.95l31.78-8.53a8.15,8.15,0,0,1,10,5.73Z"/><path class="cls-11" d="M1293,644.56h0a7.44,7.44,0,0,1-9.09-5.24L1268.81,583a7.44,7.44,0,0,1,5.24-9.09h0a7.45,7.45,0,0,1,9.09,5.24l15.12,56.29A7.44,7.44,0,0,1,1293,644.56Z"/><polygon class="cls-3" points="1237.29 680.07 1427.48 616.01 1444.75 672.44 1231.4 722.66 1237.29 680.07"/><path class="cls-5" d="M1472,596.74l-41.24,11.08a10.56,10.56,0,0,0-7.44,12.9L1436.79,671a10.57,10.57,0,0,0,12.9,7.44l41.24-11.08a10.57,10.57,0,0,0,7.44-12.91l-13.51-50.28A10.55,10.55,0,0,0,1472,596.74Zm17.8,53.85a8.14,8.14,0,0,1-5.73,9.94l-31.79,8.54a8.14,8.14,0,0,1-9.94-5.74l-10.41-38.74a8.15,8.15,0,0,1,5.73-10l31.79-8.54a8.15,8.15,0,0,1,9.94,5.74Z"/><path class="cls-11" d="M1496.94,665.74h0a7.44,7.44,0,0,1-9.09-5.24l-15.12-56.29a7.43,7.43,0,0,1,5.24-9.09h0a7.43,7.43,0,0,1,9.08,5.24l15.13,56.29A7.44,7.44,0,0,1,1496.94,665.74Z"/><rect class="cls-4" x="1330.71" y="844.39" width="19.52" height="83.61" transform="matrix(0.95, -0.32, 0.32, 0.95, -214.94, 482.58)"/><path class="cls-4" d="M1331.83,815.42c0,.07.05.15.08.23a14.78,14.78,0,0,1-28.07,9.26l0-.13a2.88,2.88,0,0,0-5.58.32,23,23,0,1,0,38.42-12.81A3,3,0,0,0,1331.83,815.42Z"/><path class="cls-4" d="M1374.27,939.21l-.09-.24a14.78,14.78,0,0,0-27.84,9.91.69.69,0,0,0,.05.13,2.88,2.88,0,0,1-4.6,3.17A23,23,0,1,1,1380,938.73,3,3,0,0,1,1374.27,939.21Z"/><rect class="cls-4" x="1447.98" y="847.83" width="17.75" height="76" transform="translate(-208.53 520.31) rotate(-18.92)"/><path class="cls-4" d="M1449,821.5a1.72,1.72,0,0,1,.07.21,13.43,13.43,0,0,1-25.5,8.42s0-.08,0-.13a2.61,2.61,0,0,0-5.06.3,20.93,20.93,0,1,0,34.91-11.65A2.69,2.69,0,0,0,1449,821.5Z"/><path class="cls-4" d="M1487.57,934l-.08-.21a13.43,13.43,0,0,0-25.31,9l0,.12a2.62,2.62,0,0,1-4.19,2.88,20.94,20.94,0,1,1,34.72-12.23A2.68,2.68,0,0,1,1487.57,934Z"/><path class="cls-4" d="M1084.84,811.72l43,146.19a10.64,10.64,0,0,1-7.2,13.21l-.25.08A10.65,10.65,0,0,1,1107.2,964l-43-146.18a10.64,10.64,0,0,1,7.2-13.22l.25-.07A10.64,10.64,0,0,1,1084.84,811.72Z"/><polygon class="cls-3" points="1071.79 843.72 1032.55 837.57 1028.99 825.46 1063.43 815.32 1071.79 843.72"/><rect class="cls-3" x="1087.94" y="807.57" width="25.69" height="25.69" transform="translate(-186.88 344.26) rotate(-16.4)"/><rect class="cls-3" x="1112.71" y="794.66" width="18.99" height="38.83" transform="translate(-184.21 350.04) rotate(-16.4)"/><path class="cls-5" d="M1115.76,916.76l12.11,41.15a10.64,10.64,0,0,1-7.2,13.21l-.25.08A10.65,10.65,0,0,1,1107.2,964l-12.11-41.15Z"/><path class="cls-4" d="M1214.25,830.5l31.57,107.23a7.82,7.82,0,0,1-5.29,9.7l-.18.05a7.81,7.81,0,0,1-9.7-5.28L1199.09,835a7.81,7.81,0,0,1,5.28-9.7l.18,0A7.81,7.81,0,0,1,1214.25,830.5Z"/><polygon class="cls-3" points="1204.68 853.97 1175.9 849.47 1173.28 840.58 1198.55 833.14 1204.68 853.97"/><rect class="cls-3" x="1216.53" y="827.46" width="18.85" height="18.85" transform="translate(-186.43 380.26) rotate(-16.4)"/><rect class="cls-3" x="1234.7" y="817.99" width="13.93" height="28.48" transform="translate(-184.48 384.52) rotate(-16.4)"/><path class="cls-5" d="M1236.93,907.55l8.89,30.18a7.82,7.82,0,0,1-5.29,9.7l-.18.05a7.81,7.81,0,0,1-9.7-5.28L1221.77,912Z"/><rect class="cls-3" x="1015.87" y="1105.64" width="312.33" height="40.44" transform="translate(-371.31 616.62) rotate(-25.59)"/><rect class="cls-5" x="1030.92" y="1171.89" width="5.52" height="40.45" transform="translate(-413.56 563.52) rotate(-25.59)"/><rect class="cls-5" x="1310.12" y="1038.19" width="5.52" height="40.45" transform="translate(-328.34 670.74) rotate(-25.58)"/><path class="cls-5" d="M1048.76,1184.9a7.27,7.27,0,1,1,9.7,3.41A7.28,7.28,0,0,1,1048.76,1184.9Z"/><path class="cls-5" d="M1279.8,1074.26a7.27,7.27,0,1,1,9.7,3.42A7.27,7.27,0,0,1,1279.8,1074.26Z"/><path class="cls-5" d="M1180.79,1099.25a19.74,19.74,0,0,1-35,16.75Z"/><rect class="cls-3" x="1193.17" y="1106.87" width="312.33" height="40.45" transform="translate(-354.45 693.32) rotate(-25.59)"/><rect class="cls-9" x="1208.21" y="1173.12" width="5.52" height="40.45" transform="translate(-396.6 639.94) rotate(-25.58)"/><rect class="cls-9" x="1487.41" y="1039.42" width="5.52" height="40.45" transform="translate(-311.49 747.46) rotate(-25.59)"/><path class="cls-9" d="M1226.05,1186.13a7.27,7.27,0,1,1,9.7,3.41A7.27,7.27,0,0,1,1226.05,1186.13Z"/><path class="cls-9" d="M1457.09,1075.49a7.27,7.27,0,1,1,9.7,3.42A7.28,7.28,0,0,1,1457.09,1075.49Z"/><path class="cls-9" d="M1358.08,1100.48a19.74,19.74,0,0,1-35,16.75Z"/><path class="cls-3" d="M1156.57,1409.14A105.39,105.39,0,1,0,1262,1514.53,105.38,105.38,0,0,0,1156.57,1409.14Zm0,122.77a17.39,17.39,0,1,1,17.38-17.38A17.38,17.38,0,0,1,1156.57,1531.91Z"/><path class="cls-4" d="M1156.57,1421a93.57,93.57,0,1,0,93.57,93.57A93.58,93.58,0,0,0,1156.57,1421Zm0,111a17.39,17.39,0,1,1,17.38-17.38A17.38,17.38,0,0,1,1156.57,1531.91Z"/><path class="cls-10" d="M1156.57,1477.71a36.82,36.82,0,1,0,36.81,36.82A36.82,36.82,0,0,0,1156.57,1477.71Zm0,54.2a17.39,17.39,0,1,1,17.38-17.38A17.38,17.38,0,0,1,1156.57,1531.91Z"/><path class="cls-3" d="M1408.88,1445.28a82.93,82.93,0,1,0,82.93,82.93A82.92,82.92,0,0,0,1408.88,1445.28Zm0,96.61a13.68,13.68,0,1,1,13.68-13.68A13.69,13.69,0,0,1,1408.88,1541.89Z"/><path class="cls-4" d="M1408.88,1454.58a73.63,73.63,0,1,0,73.63,73.63A73.63,73.63,0,0,0,1408.88,1454.58Zm0,87.31a13.68,13.68,0,1,1,13.68-13.68A13.69,13.69,0,0,1,1408.88,1541.89Z"/><path class="cls-10" d="M1408.88,1499.24a29,29,0,1,0,29,29A29,29,0,0,0,1408.88,1499.24Zm0,42.65a13.68,13.68,0,1,1,13.68-13.68A13.69,13.69,0,0,1,1408.88,1541.89Z"/><path class="cls-3" d="M1304.38,1301.2a65.58,65.58,0,1,0,65.58,65.58A65.57,65.57,0,0,0,1304.38,1301.2Zm0,76.4a10.82,10.82,0,1,1,10.82-10.82A10.83,10.83,0,0,1,1304.38,1377.6Z"/><path class="cls-4" d="M1304.38,1308.56a58.22,58.22,0,1,0,58.22,58.22A58.23,58.23,0,0,0,1304.38,1308.56Zm0,69a10.82,10.82,0,1,1,10.82-10.82A10.83,10.83,0,0,1,1304.38,1377.6Z"/><path class="cls-10" d="M1304.38,1343.87a22.91,22.91,0,1,0,22.91,22.91A22.91,22.91,0,0,0,1304.38,1343.87Zm0,33.73a10.82,10.82,0,1,1,10.82-10.82A10.83,10.83,0,0,1,1304.38,1377.6Z"/><rect class="cls-12" x="109.03" y="1658.03" width="2815.97" height="7.47" rx="3.19"/><path class="cls-13" d="M855.77,824.65S925,896,928.6,925.06s-35.47,74.44-35.47,74.44Z"/><path class="cls-14" d="M818.57,1618.62s-2.54,40.92-10.45,41.51c-1.06.08-40.16.08-40.16.08l-49.92-.29s.33-12,14.92-14.57,39-12.8,47.85-32.08C790.11,1593,818.57,1618.62,818.57,1618.62Z"/><path class="cls-14" d="M929.76,1618.62s-2.54,40.92-10.46,41.51c-1,.08-40.15.08-40.15.08l-49.92-.29s.32-12,14.91-14.57,39-12.8,47.86-32.08C901.3,1593,929.76,1618.62,929.76,1618.62Z"/><path class="cls-14" d="M763.29,1178.79s13.05,83.5,61.76,231.73,55.34,212.41,55.34,212.41l52.25-1.46s.44-162-22-236.54-4.85-268.72-4.85-268.72Z"/><path class="cls-8" d="M737.86,1120.79s-1.85,125.83,19.92,280.33,14.4,220.08,14.4,220.08l52.14,1.73s31.16-154.55,22.23-231.88,42.67-265.36,42.67-265.36Z"/><path class="cls-15" d="M838.8,826.33,811,844.54l-40.15-7.48c.56-3.24,3.21-16.68,5.62-28.84.15-.72.29-1.44.43-2.14l3.85-19.25,37.5-16.54,14-6.17c0,.21-1.08,11.49-1.23,13.13C828.4,806.47,838.8,826.33,838.8,826.33Z"/><path class="cls-13" d="M781.15,817.13c.78-.32,48.35-14.36,53.52-12.65s8.23,11.7,8.23,11.7l-77.81,17.59S771.21,821.32,781.15,817.13Z"/><path class="cls-9" d="M909.25,1136.32c-8.06,36.79-142.26,41.15-176.85,7.76-3.94-3.81-4.13-21.51-2.65-45.39C732.66,1052,742,981.88,742.34,946a284,284,0,0,1,5.73-51.1,414.91,414.91,0,0,1,17-61.16s65.54-21.19,77.81-17.59C902,833.54,917.32,1099.54,909.25,1136.32Z"/><path class="cls-13" d="M729.75,1098.69C732.66,1052,742,981.88,742.34,946a284,284,0,0,1,5.73-51.1l39.43-7S826.05,1045.43,729.75,1098.69Z"/><path class="cls-15" d="M751.11,1033.67s2.68,6.43-3,10.74-9.31,11.3-8,16.41,13.67,13.44,18,12.09,13-8.07,12.09-10.76,5.87-23.64-4.59-31.7S751.11,1033.67,751.11,1033.67Z"/><path class="cls-9" d="M795.2,824.33s-38.46,7.2-69.1,52.35-50.8,78.73-45.15,95,57.09,72.72,66,72.72,23.18-6.45,24-21c0,0-36.22-54.29-29.09-62.42,3.05-3.47,47-39.17,53.31-23C805.51,964.65,795.2,824.33,795.2,824.33Z"/><path class="cls-16" d="M828.21,777.77c-8.23,14-38.92,26-51.72,30.45.15-.72.29-1.44.43-2.14l3.85-19.25,37.5-16.54C826.56,770.17,831.61,772,828.21,777.77Z"/><path class="cls-15" d="M766.64,784.55S827,803.39,838.2,765.6s26.46-60.83-11.63-74.46-49.88-1.42-56.68,10.29S751.21,778.67,766.64,784.55Z"/><path class="cls-14" d="M772.27,697.78s3.85,44,13,42.08,17.34-3.32,16,9.93-14,28.57,14.09,30.92,68.33-70,60.63-83.64C853.73,657.57,740.15,649.6,772.27,697.78Z"/><path class="cls-17" d="M1674.91,1456.21s33.45-39,2.06-63.81c0,0-22.93-13.88-41.62-12.76,0,0,26.49,44.42,17.92,48.84s-26-51.62-26-51.62-52.17-5.06-69,3c0,0,44.61,36.5,35.21,38.67s-57.57-33.65-57.57-33.65-48.56,8.26-46,37.88,19.32,38.77,26.68,38,50.37-17.21,51.31-11.19-25,25.72-43.1,26.64c0,0,34.24,37.76,57,26.86s24.7-28.17,38.88-34.65,26.29-6.46,20.44.15-31.53,13-39.64,27.38-15.39,24,8.15,20.48,61.81-20.77,63.49-40.49Z"/><path class="cls-17" d="M1513.89,1423.57s131.89-5.08,161,32.64c0,0,6.44,19.29,26.26,36.86l3.09,8.42s-22.85-24.1-31-25.55C1673.23,1475.94,1686,1429.21,1513.89,1423.57Z"/><path class="cls-17" d="M1701.17,1493.07s28.31,20.94,30.28,58.35l-5.14.46s-9-38.68-25.38-53.81S1701.17,1493.07,1701.17,1493.07Z"/><path class="cls-18" d="M1991.3,1415.58s-37.16,59.77-82.47,29c0,0-27.58-24.21-33.82-49.09,0,0,68.92,16.27,71.16,3.26s-78.11-12.59-78.11-12.59-28.12-66-24.51-91.28c0,0,66,43.19,65,30s-67.68-61.29-67.68-61.29-9.24-66.81,30.51-75.65,58.59,9.24,60.59,19.17-1.7,72.87,6.56,71.61,23.29-43.2,17-67.25c0,0,63.42,29.13,58.57,63.33s-26.59,43.86-29.2,65.05,2.4,37,8.61,26.63,4-46.54,19.4-63,25-30,30.11,2.2-1.63,89.27-26.69,99.59Z"/><path class="cls-17" d="M1882.28,1218.8s47.76,174.31,109,196.78c0,0,27.84.46,59,19.09l12.27.56s-40.89-19.9-46.17-30C2016.36,1405.25,1960.62,1441.22,1882.28,1218.8Z"/><path class="cls-17" d="M2050.26,1434.67s39,28.33,88.66,15.47l-1.52-6.89s-54.23,4.14-80.72-11S2050.26,1434.67,2050.26,1434.67Z"/><path class="cls-18" d="M1725,1254s79.76-60.08,30.56-120.22c0,0-37.7-35.9-73.64-41.57,0,0,31.71,95.34,13.61,100.14s-27.68-108.78-27.68-108.78-96.88-31.38-132.09-23.08c0,0,69.38,87.87,50.65,88.07s-95.17-87.88-95.17-87.88-95.58-4.6-103,52.68,20.47,81.63,34.75,83.2,102.76-11.61,102,.21-58.09,38.37-92.88,32.55c0,0,49.19,85.93,96.91,74.75s58.61-43.13,88.23-49.5,52.58-1.28,38.71,8.81-65.25,11.55-86.63,35.39-39.23,39.15,6.91,42.26,125.94-13.59,137.36-50.31Z"/><path class="cls-17" d="M1433.15,1124.87S1685.51,1170.3,1725,1254c0,0,4.17,39.29,34.44,80.89l2.35,17.27s-33.3-55.26-48.21-61.44C1713.6,1290.75,1757.38,1207.43,1433.15,1124.87Z"/><path class="cls-17" d="M1759.46,1334.92s45,51.55,33.08,123.34l-9.94-1.27s-1-77.16-25.69-112.69S1759.46,1334.92,1759.46,1334.92Z"/><path class="cls-11" d="M2388.71,747.21s-51.62,11-63.68,19,4.52,254.11,24.13,334.94h192.15L2528.25,766.2s-40.31-18.6-69.65-19S2388.71,747.21,2388.71,747.21Z"/><path class="cls-15" d="M2464,747.47s-10.61,16.64-25.53,23.64c-22.61,10.61-49.24-5.13-50.36-30,0-.52,0-1,0-1.55,0-1.75,0-3.45-.06-5.07-.2-16.05-.75-25.06-.75-25.06h0c1.7-.7,57-23.34,57-21.46C2443.28,731.37,2464,747.47,2464,747.47Z"/><path class="cls-19" d="M2438.67,698.31c-5.33,9.85-23.63,29.13-50.7,36.17-.2-16.05-.75-25.06-.75-25.06h0C2388.79,709,2440.26,695.4,2438.67,698.31Z"/><path class="cls-15" d="M2375.64,707.75s62.2,14.58,70.72-24.17,22.27-63-17.09-73.9-50.35,2.15-56.34,14.39S2359.68,703,2375.64,707.75Z"/><path class="cls-20" d="M2444.23,694.14c.85.54,14.23,4.64,39.58-45.69,4-7.9,6.69-25-2.59-40.09s-42.16-27-69.48-32.14-33.89,10.16-40.32,25.56c-6.76,16.16-26.27,29.47-26.27,29.47,23.57,13.12,51.95-5.64,61.78-2.56s13.3,18.53,14,23.48,1.87,9.07,14.24,4.65,5.59,17.46,3.61,21.64C2438.82,678.46,2437.14,689.61,2444.23,694.14Z"/><path class="cls-15" d="M2219.3,1059.69s-9.69,16.51-14.24,16.78c-10.33.63-26.29,4.13-29.36,6.11-12.72,8.22-31.07,23.12-31.07,23.12l11.95-.75a10,10,0,0,0,4.35-1.31c4.61-2.65,15.82-8.86,18-7.9,2.77,1.22,10.24,2.69,10.24,2.69l-20.29,1.65s-1.29,3.92,6.42,4.07,34.84-.77,39.69-5.08,18-29,18-29Z"/><path class="cls-15" d="M2617.68,1059.69s9.69,16.51,14.24,16.78c10.33.63,26.29,4.13,29.36,6.11,12.72,8.22,31.07,23.12,31.07,23.12l-11.95-.75a10,10,0,0,1-4.35-1.31c-4.61-2.65-15.82-8.86-18-7.9-2.77,1.22-10.24,2.69-10.24,2.69l20.29,1.65s1.29,3.92-6.42,4.07-34.84-.77-39.7-5.08-18-29-18-29Z"/><path class="cls-11" d="M2325,766.2s-31.5,16.7-46.58,93.85-73.89,213.37-73.89,213.37,0,6.16,7.53,10.32a24.94,24.94,0,0,0,13.45,2.75s75.61-97.1,88.76-123.91,41.56-95.52,41.56-95.52Z"/><path class="cls-11" d="M2528.25,766.2s31.5,16.7,46.58,93.85,57.09,216.42,57.09,216.42a44.16,44.16,0,0,1-8.39,7.89c-2.64,2-12.76,3.89-12.76,3.89s-58.65-98.86-71.8-125.67-41.55-95.52-41.55-95.52Z"/><path class="cls-1" d="M2372.74,683.4s.5,7,5.36,8.52,12.9-1,14.24-2.51C2392.34,689.41,2383.46,682.44,2372.74,683.4Z"/><rect class="cls-1" x="2345.15" y="817.47" width="42.07" height="21.54"/><rect class="cls-5" x="2345.15" y="817.47" width="42.07" height="4.34"/><rect class="cls-5" x="1887.17" y="1181.98" width="780.66" height="476"/><rect class="cls-21" x="2659.67" y="1101.14" width="151.62" height="556.83"/><polygon class="cls-22" points="2609.12 1066.77 2401.62 1066.77 2372.59 924.24 2580.09 924.24 2609.12 1066.77"/><polygon class="cls-5" points="2586.92 1066.77 2379.42 1066.77 2350.38 924.24 2557.88 924.24 2586.92 1066.77"/><polygon class="cls-21" points="2560.32 1066.77 2560.32 1101.15 2421.39 1101.15 2421.39 1059.12 2533.42 1059.12 2560.32 1066.77"/><rect class="cls-5" x="2421.39" y="1059.12" width="112.03" height="42.03"/><polygon class="cls-22" points="2024.22 1069.88 2095.73 1070.16 2120.2 949.34 2048.69 949.06 2024.22 1069.88"/><polygon class="cls-5" points="2015.1 1069.85 2086.61 1070.12 2111.08 949.3 2039.57 949.02 2015.1 1069.85"/><rect class="cls-5" x="2048.64" y="1064.72" width="29.1" height="36.42" transform="translate(4126.38 2165.87) rotate(180)"/><path class="cls-22" d="M2045.6,1018.61h-8.09a2.71,2.71,0,0,1-2.68-3.61l2.07-8.08a5,5,0,0,1,4.54-3.61h8.09a2.71,2.71,0,0,1,2.68,3.61l-2.07,8.08A5,5,0,0,1,2045.6,1018.61Z"/><path class="cls-22" d="M2065.06,1018.61H2057a2.7,2.7,0,0,1-2.68-3.61l2.07-8.08a5,5,0,0,1,4.54-3.61H2069a2.71,2.71,0,0,1,2.68,3.61l-2.07,8.08A5,5,0,0,1,2065.06,1018.61Z"/><path class="cls-22" d="M2084.52,1018.61h-8.09a2.7,2.7,0,0,1-2.68-3.61l2.07-8.08a5,5,0,0,1,4.54-3.61h8.09a2.71,2.71,0,0,1,2.68,3.61l-2.07,8.08A5,5,0,0,1,2084.52,1018.61Z"/><path class="cls-22" d="M2040.86,1037.1h-8.09a2.71,2.71,0,0,1-2.69-3.61l2.08-8.08a5,5,0,0,1,4.53-3.61h8.09a2.71,2.71,0,0,1,2.69,3.61l-2.07,8.08A5,5,0,0,1,2040.86,1037.1Z"/><path class="cls-22" d="M2060.32,1037.1h-8.09a2.71,2.71,0,0,1-2.69-3.61l2.08-8.08a5,5,0,0,1,4.53-3.61h8.09a2.71,2.71,0,0,1,2.69,3.61l-2.07,8.08A5,5,0,0,1,2060.32,1037.1Z"/><path class="cls-22" d="M2079.78,1037.1h-8.09a2.71,2.71,0,0,1-2.69-3.61l2.08-8.08a5,5,0,0,1,4.53-3.61h8.09a2.71,2.71,0,0,1,2.69,3.61l-2.08,8.08A5,5,0,0,1,2079.78,1037.1Z"/><path class="cls-22" d="M2036.11,1055.59H2028a2.71,2.71,0,0,1-2.69-3.61l2.07-8.08a5,5,0,0,1,4.54-3.61H2040a2.71,2.71,0,0,1,2.69,3.61l-2.08,8.08A5,5,0,0,1,2036.11,1055.59Z"/><path class="cls-22" d="M2055.57,1055.59h-8.08a2.71,2.71,0,0,1-2.69-3.61l2.07-8.08a5,5,0,0,1,4.54-3.61h8.09a2.71,2.71,0,0,1,2.69,3.61l-2.08,8.08A5,5,0,0,1,2055.57,1055.59Z"/><path class="cls-22" d="M2075,1055.59H2067a2.71,2.71,0,0,1-2.69-3.61l2.07-8.08a5,5,0,0,1,4.54-3.61H2079a2.7,2.7,0,0,1,2.68,3.61l-2.07,8.08A5,5,0,0,1,2075,1055.59Z"/><path class="cls-22" d="M2086.93,994.17h-41.44c-2.85,0-4.56-2.3-3.82-5.13l6.73-25.83a7.13,7.13,0,0,1,6.49-5.14h41.45c2.84,0,4.55,2.3,3.81,5.14L2093.42,989A7.13,7.13,0,0,1,2086.93,994.17Z"/><polygon class="cls-21" points="1879.01 1181.98 1913.54 1206.84 2659.68 1206.84 2659.68 1181.98 1879.01 1181.98"/><rect class="cls-22" x="1951.63" y="1101.14" width="859.67" height="80.84"/><rect class="cls-5" x="1828.5" y="1101.14" width="867.82" height="80.84"/><path class="cls-4" d="M2099.68,1629.35a3.84,3.84,0,0,1-2.09-5l16.1-39.27a6.1,6.1,0,0,0-3.32-7.94l-86.44-35.43a13.75,13.75,0,0,1-7.5-17.93l12.12-29.57a13.75,13.75,0,0,1,17.93-7.5l35.88,14.7a3.83,3.83,0,0,1-2.91,7.09l-35.88-14.71a6.09,6.09,0,0,0-7.93,3.32l-12.13,29.58a6.09,6.09,0,0,0,3.32,7.93l86.44,35.44a13.76,13.76,0,0,1,7.51,17.93l-16.1,39.27A3.84,3.84,0,0,1,2099.68,1629.35Z"/><path class="cls-4" d="M2097.89,1644.1l-8.8-3.6a6.49,6.49,0,0,1-3.53-8.44l18.32-44.68a6.48,6.48,0,0,1,8.43-3.53l8.79,3.61a6.48,6.48,0,0,1,3.53,8.43l-18.31,44.68A6.48,6.48,0,0,1,2097.89,1644.1Z"/><path class="cls-4" d="M2230.84,1550.19,2219.45,1578a14.17,14.17,0,0,1-18.48,7.73l-143.84-59a14.15,14.15,0,0,1-7.73-18.47l11.39-27.79a14.16,14.16,0,0,1,18.47-7.73l143.84,59A14.17,14.17,0,0,1,2230.84,1550.19Z"/><path class="cls-3" d="M2230.84,1550.19l-3.92,9.56a14.16,14.16,0,0,1-18.48,7.73l-143.84-59a14.15,14.15,0,0,1-7.73-18.47l3.92-9.57a14.16,14.16,0,0,1,18.47-7.73l143.84,59A14.17,14.17,0,0,1,2230.84,1550.19Z"/><path class="cls-23" d="M1941.65,1520.68a4,4,0,0,1-1.73-7.66c42.86-20.29,94.64-44.59,97.94-45.08a4,4,0,0,1,1.46,7.91c-4.72,1.5-59.86,27.35-96,44.44A4,4,0,0,1,1941.65,1520.68Zm97.61-44.82-.22,0Z"/><path class="cls-23" d="M2251.34,1520.29c-36.09-17.09-91.24-42.94-96-44.44a4,4,0,0,1,1.45-7.91c3.3.49,55.08,24.79,97.94,45.08a4,4,0,0,1-1.72,7.66A3.92,3.92,0,0,1,2251.34,1520.29Zm-95.67-44.39-.22,0Z"/><path class="cls-23" d="M1978.94,1658.52l-.07,0a6.39,6.39,0,0,1-1.37.15,6.32,6.32,0,0,1-1.45-.17,6.55,6.55,0,0,1-4.94-5l-1.66-7.74-6.67-31.08L1960,1602l-6.66-31.09-2.74-12.73-7-32.53-1.67-7.78a6.33,6.33,0,0,1,5.68-3.52h6.93l2.74,12.74,6.67,31.09,2.74,12.73,6.66,31.09,2.74,12.74,6.66,31.08,1.08,5A6.54,6.54,0,0,1,1978.94,1658.52Z"/><path class="cls-23" d="M2257.08,1517.82h0l-1.67,7.79-7,32.52-2.74,12.73L2239,1602l-2.74,12.74-6.67,31.08-1.66,7.74a6.52,6.52,0,0,1-4.93,5,6.34,6.34,0,0,1-1.46.17,6.46,6.46,0,0,1-1.37-.15l-.07,0a6.53,6.53,0,0,1-4.95-7.74l1.08-5,6.66-31.08,2.74-12.74,6.66-31.09,2.74-12.73,6.67-31.09,2.74-12.74h6.92A6.34,6.34,0,0,1,2257.08,1517.82Z"/><path class="cls-23" d="M2270.73,1520.68a6.14,6.14,0,0,1-2,4.5c-.18.16-.35.3-.53.44a7.14,7.14,0,0,1-4.32,1.43h-327.1a7.06,7.06,0,0,1-4.32-1.44,6.15,6.15,0,0,1-2.53-4.93,5.79,5.79,0,0,1,.74-2.85,6.28,6.28,0,0,1,1.27-1.65,7.14,7.14,0,0,1,4.84-1.87h327.1a6.93,6.93,0,0,1,6.12,3.51h0A5.79,5.79,0,0,1,2270.73,1520.68Z"/><polygon class="cls-23" points="2248.44 1558.14 2245.7 1570.87 1953.38 1570.87 1950.64 1558.14 2248.44 1558.14"/><polygon class="cls-23" points="2239.04 1601.96 2236.3 1614.7 1962.78 1614.7 1960.04 1601.96 2239.04 1601.96"/><path class="cls-23" d="M2229.63,1645.78l-6.59,12.74h-247a6.55,6.55,0,0,1-4.94-5l-1.66-7.74Z"/><path class="cls-23" d="M2024.5,1658.52l-.32.07a6.92,6.92,0,0,1-1.1.1,6.39,6.39,0,0,1-1.45-.17,6.51,6.51,0,0,1-5-5.26l-1.28-7.48L2010,1614.7l-2.19-12.74-5.35-31.09-2.18-12.73-5.35-31.09-2.19-12.74H2006l2.19,12.74,5.34,31.09,2.19,12.73,5.34,31.09,2.19,12.74,5.34,31.08.9,5.26A6.52,6.52,0,0,1,2024.5,1658.52Z"/><path class="cls-23" d="M2067.12,1658.52a5.86,5.86,0,0,1-.73.13c-.24,0-.47,0-.71,0a6.32,6.32,0,0,1-1.45-.17,6.54,6.54,0,0,1-5-5.68l-.75-7.06-3.3-31.08-1.35-12.74-3.31-31.09-1.34-12.73-3.3-31.09-1.36-12.74h13.15l1.35,12.74,3.31,31.09,1.34,12.73,3.3,31.09,1.36,12.74,3.3,31.08.6,5.68A6.52,6.52,0,0,1,2067.12,1658.52Z"/><path class="cls-23" d="M2213.86,1514.31l-2.19,12.74-5.34,31.09-2.19,12.73L2198.8,1602l-2.19,12.74-5.34,31.08-1.28,7.48a6.51,6.51,0,0,1-5,5.26,6.39,6.39,0,0,1-1.45.17,6.94,6.94,0,0,1-1.11-.1l-.32-.07a6.51,6.51,0,0,1-5-7.48l.9-5.26,5.34-31.08,2.19-12.74,5.34-31.09,2.19-12.73,5.34-31.09,2.19-12.74Z"/><path class="cls-23" d="M2160.64,1514.31l-1.36,12.74-3.29,31.09-1.36,12.73-3.3,31.09L2150,1614.7l-3.29,31.08-.76,7.06a6.52,6.52,0,0,1-5,5.68,6.32,6.32,0,0,1-1.45.17c-.23,0-.47,0-.71,0a6,6,0,0,1-.74-.13,6.53,6.53,0,0,1-5.07-7.06l.61-5.68,3.29-31.08,1.36-12.74,3.3-31.09,1.35-12.73,3.3-31.09,1.36-12.74Z"/><path class="cls-23" d="M2109.38,1514.31v137.84a6.53,6.53,0,0,1-5.1,6.37,6.56,6.56,0,0,1-2.88,0,6.53,6.53,0,0,1-5.09-6.37V1514.31Z"/><path class="cls-5" d="M426.43,1529.7a3.76,3.76,0,0,1-1.62-7.15c40.06-19,88.46-41.68,91.54-42.14a3.76,3.76,0,0,1,1.36,7.39c-4.41,1.41-55.94,25.57-89.68,41.54A3.69,3.69,0,0,1,426.43,1529.7Zm91.22-41.89-.2,0Z"/><path class="cls-5" d="M715.87,1529.34c-33.73-16-85.27-40.13-89.68-41.54a3.76,3.76,0,0,1,1.36-7.39c3.08.46,51.48,23.17,91.54,42.14a3.76,3.76,0,0,1-1.61,7.15A3.7,3.7,0,0,1,715.87,1529.34Zm-89.42-41.49-.2,0Z"/><path class="cls-5" d="M461.28,1658.53l-.06,0a6.29,6.29,0,0,1-1.29.14,6.16,6.16,0,0,1-6-4.83l-1.55-7.23-6.24-29.06-2.55-11.9-6.23-29.05-2.56-11.91-6.52-30.4-1.56-7.27a5.81,5.81,0,0,1,1.11-1.54,5.94,5.94,0,0,1,4.2-1.75h6.48l2.56,11.91,6.24,29,2.56,11.91,6.22,29.05,2.56,11.9,6.23,29.06,1,4.67A6.1,6.1,0,0,1,461.28,1658.53Z"/><path class="cls-5" d="M721.24,1527h0l-1.56,7.28-6.52,30.39-2.56,11.91-6.23,29.05-2.55,11.9-6.24,29.06-1.55,7.23a6.15,6.15,0,0,1-6,4.83,6.44,6.44,0,0,1-1.29-.14l-.06,0a6.11,6.11,0,0,1-4.63-7.23l1-4.67,6.23-29.06,2.56-11.9,6.22-29.05,2.56-11.91,6.24-29,2.56-11.91h6.47A6,6,0,0,1,721.24,1527Z"/><path class="cls-5" d="M734,1529.7a5.72,5.72,0,0,1-1.89,4.21,6.26,6.26,0,0,1-.49.41,6.69,6.69,0,0,1-4,1.34H421.87a6.61,6.61,0,0,1-4-1.35,5.76,5.76,0,0,1-2.37-4.61,5.49,5.49,0,0,1,.69-2.66,5.93,5.93,0,0,1,1.2-1.54,6.62,6.62,0,0,1,4.52-1.75H727.58a6.48,6.48,0,0,1,5.72,3.28h0A5.39,5.39,0,0,1,734,1529.7Z"/><polygon class="cls-5" points="713.16 1564.71 710.6 1576.62 437.39 1576.62 434.83 1564.71 713.16 1564.71"/><polygon class="cls-5" points="704.37 1605.67 701.82 1617.57 446.17 1617.57 443.62 1605.67 704.37 1605.67"/><path class="cls-5" d="M695.58,1646.63l-6.16,11.9H458.58a6.11,6.11,0,0,1-4.62-4.67l-1.55-7.23Z"/><path class="cls-5" d="M503.86,1658.53l-.29.07a7.43,7.43,0,0,1-1,.09,6.15,6.15,0,0,1-6-5.07l-1.2-7-5-29.06-2.05-11.9-5-29.05-2-11.91-5-29-2.05-11.91H486.6l2,11.91,5,29,2.05,11.91,5,29.05,2.05,11.9,5,29.06.85,4.91A6.11,6.11,0,0,1,503.86,1658.53Z"/><path class="cls-5" d="M543.7,1658.53a5.23,5.23,0,0,1-.69.12c-.22,0-.44,0-.66,0a6.14,6.14,0,0,1-6.07-5.47l-.7-6.59-3.08-29.06-1.26-11.9-3.09-29.05-1.26-11.91-3.08-29-1.27-11.91h12.29l1.26,11.91,3.09,29,1.26,11.91,3.08,29.05,1.27,11.9,3.08,29.06.56,5.3A6.09,6.09,0,0,1,543.7,1658.53Z"/><path class="cls-5" d="M680.84,1523.75l-2,11.91-5,29-2,11.91-5,29.05-2,11.9-5,29.06-1.2,7a6.15,6.15,0,0,1-6,5.07,7.43,7.43,0,0,1-1-.09l-.29-.07a6.09,6.09,0,0,1-4.69-7l.85-4.91,5-29.06,2-11.9,5-29.05,2-11.91,5-29,2.05-11.91Z"/><path class="cls-5" d="M631.1,1523.75l-1.27,11.91-3.08,29-1.27,11.91-3.08,29.05-1.27,11.9-3.08,29.06-.71,6.59a6.09,6.09,0,0,1-4.69,5.31,6.19,6.19,0,0,1-1.37.16c-.21,0-.43,0-.65,0a5.38,5.38,0,0,1-.7-.12,6.1,6.1,0,0,1-4.73-6.6l.56-5.3,3.08-29.06,1.27-11.9,3.08-29.05,1.27-11.91,3.08-29,1.27-11.91Z"/><path class="cls-5" d="M583.19,1523.75v128.82a6.11,6.11,0,0,1-6.11,6.11,5.92,5.92,0,0,1-1.34-.15,6.1,6.1,0,0,1-4.77-6V1523.75Z"/><path class="cls-24" d="M1962.23,1051.6l-23.34-7.89c-3.33-1.13-4.39-4.5-2.36-7.53l24.09-36a8.92,8.92,0,0,1,9.7-3.44l23.34,7.9c3.33,1.13,4.39,4.5,2.37,7.53l-24.1,36A8.92,8.92,0,0,1,1962.23,1051.6Z"/><polygon class="cls-11" points="1946.16 1046.17 1938.89 1043.7 1970.32 996.73 1977.6 999.19 1946.16 1046.17"/><path class="cls-21" d="M1688.73,1099.62c5.52,3.67,17.78,12.09,16.27,13.36-1.1.91-3.47,1.13-6.22.61,5.26,5.93,9.68,12.3,12.9,30.16a13.36,13.36,0,0,1-2.22,10.26c-2,2.72-5,4.63-9.32,1.4-8.55-6.44-4.44-5.2-16.68-14s-19.78-22.51-17.72-33.22l-2.54-12.32,18.49-8.79S1685,1093.35,1688.73,1099.62Z"/><path class="cls-21" d="M1676.88,1101c11.34-3.5,11-9.93,11-9.93s-23-120.15-23.71-130.86,52.71-125.12,52.71-125.12,23.2-44.91,5.51-67.52C1707,748,1686.27,746,1668.58,749.39a52.24,52.24,0,0,0-41.28,42c-8.71,47.4-25.38,142-23.7,162.11,3.74,44.77,56.31,148.63,56.31,148.63A37.37,37.37,0,0,0,1676.88,1101Z"/><path class="cls-23" d="M1793.47,1658.69h-99.75a9.06,9.06,0,0,1-2.11-.61c-6.66-3.34-4.58-28.84-3.78-36.71.15-1.46.26-2.32.26-2.32s35.08-28,39.91-6.57c.15.67.33,1.33.51,2h0c6.09,20.1,33.31,29.22,49,31.77C1789.55,1648.19,1792.67,1655.19,1793.47,1658.69Z"/><path class="cls-23" d="M1773.37,1083.47s-5.33,66.46-11.59,146.36c-6.47,82.53-13.94,179.42-17.6,232.18-1.14,16.61-1.92,28.85-2.16,34.9-1.75,43.84-8.77,114-8.77,114s-16.66,16.66-50,9.64c0,0-29.7-100.13-38.19-206.08-.13-1.73-.26-3.48-.39-5.23-2.62-35.85-5.73-84.89-8.71-134.39-6-99.36-11.45-200.57-11.45-200.57Z"/><path class="cls-25" d="M1928.77,1658.69H1829a9.33,9.33,0,0,1-2.12-.61c-6.66-3.34-4.57-28.84-3.77-36.71.15-1.46.26-2.32.26-2.32s35.08-28,39.9-6.57c.16.67.33,1.33.52,2h0c6.09,20.1,33.31,29.22,49,31.77C1924.85,1648.19,1928,1655.19,1928.77,1658.69Z"/><path class="cls-26" d="M1793.15,1080.88c-2.57,8.14,70.14,531.6,70.14,531.6s-15.81,18.46-44.63,8.55c0,0-98.16-207.16-86.39-253.07,5.86-22.85-125.57-208.82-104.46-301.38S1793.15,1080.88,1793.15,1080.88Z"/><path class="cls-15" d="M1657.53,750.43s33.71,30.4,68.64,10.94c0,0,5.3-20.3,3.47-34.47-.23-1.74-.44-3.43-.63-5-2-16-2.69-25-2.69-25h0c-1.77-.47-59.61-15.42-59.31-13.56C1673.84,726.29,1657.53,750.43,1657.53,750.43Z"/><path class="cls-19" d="M1673.88,692.83c6.63,9.06,27.37,25.72,55.13,29-2-16-2.69-25-2.69-25h0C1724.71,696.67,1671.92,690.16,1673.88,692.83Z"/><path class="cls-15" d="M1737.56,693.64s-59.58,22.93-73.29-14.39-30.64-59.49,6.82-75.72,50.12-4.71,57.73,6.63S1752.7,686.71,1737.56,693.64Z"/><path class="cls-25" d="M1631,609.36c-.62-.52-1.91-.81-4.61-.53a11,11,0,0,1,4.79-2.21c0-3.82.89-10.75,7-13.38a8.16,8.16,0,0,0-3,6.43c6.22-8.83,21.27-16.95,66-20.53,58.92-4.73,45.71,35.6,38.89,41.24s-27.73-3.49-41.59-.13-13.27,24.07-17.59,27.61-3.23-1.67-10.14-3.55-5.81,8.89-2.84,15.53-4.41,17.22-4.41,17.22l-10.49-8.2c-10.48-8.2-25.45-47.65-22.77-57C1630.51,611,1630.75,610.2,1631,609.36Z"/><path class="cls-5" d="M1807.73,1111.59a6,6,0,0,1-3.91,1.59c-14.09.17-55,9-89.81,6.28-29.37-2.1-55.51-10.14-83.66-22-3.74-1.57-12.37-5.89-12.28-10,0-4.54.29-11.12.66-19.4,1.27-28.79,3.49-78.32-1.26-135.27q-1.29-15.93-1.73-31.51a476.06,476.06,0,0,1,3.57-76.32c5.85-43.36,25.86-76.59,45.53-92,0,0,11.55,4.47,26.57,11.42,13.88,6.43,25,2.93,37.9,0l15.84,15c16.13,14.27,33.91,33.76,42.16,63.81.61,2.22,1.21,4.59,1.77,7.11,2.84,12.32,5.28,28.06,7.39,45.77,2.43,20.44,4.4,43.53,6,67,.1,1.4.19,2.78.28,4.18.71,10.71,1.37,21.45,1.93,32,.2,3.82.41,7.62.58,11.4.27,5.72.49,11.38.68,17v.76c.24,2.06.3,4.32.35,6.38.16,4.2.31,8.34.45,12.39C1808.4,1074.76,1808.58,1110.87,1807.73,1111.59Z"/><path class="cls-21" d="M1806.75,1027.22c-71.35-17.61-105.34-136.83-105.34-136.83l103.27,89c.2,3.82.41,7.62.58,11.4.27,5.72.49,11.38.68,17v.76c.24,2.06.3,4.32.35,6.38C1806.46,1019,1806.61,1023.17,1806.75,1027.22Z"/><path class="cls-15" d="M1933.46,1016.93c6.46-1.47,21-4.57,20.89-2.59-.09,1.42-1.57,3.29-3.84,4.93,7.92.26,15.59,1.45,30.76,11.41a13.39,13.39,0,0,1,5.91,8.68c.6,3.31-.12,6.84-5.4,7.72-10.57,1.76-6.84-.36-21.67,2.43s-29.93-1.16-36.28-10l-10.69-6.64,6.36-19.46S1926.36,1015.3,1933.46,1016.93Z"/><path class="cls-5" d="M1926.33,1026.5c5.27-10.63.36-14.79.36-14.79s-103-66.05-111.21-72.92S1761,814.41,1761,814.41s-16.59-47.76-45.16-50.5c-24.83-2.39-40.55,11.27-50.24,26.45a52.23,52.23,0,0,0,2,58.82c28.38,39,85.49,116.2,101.23,128.83,35,28.11,146.55,61.51,146.55,61.51A37.4,37.4,0,0,0,1926.33,1026.5Z"/><rect class="cls-9" x="1748.28" y="375.08" width="11.71" height="58.94"/><rect class="cls-9" x="2188.3" y="375.08" width="11.71" height="58.94"/><rect class="cls-3" x="1703.09" y="426.99" width="542.12" height="35.28" rx="12.27"/><rect class="cls-9" x="651.04" y="375.08" width="11.71" height="58.94"/><rect class="cls-9" x="1091.07" y="375.08" width="11.71" height="58.94"/><rect class="cls-3" x="605.85" y="426.99" width="542.12" height="35.28" rx="12.27"/></svg>