<svg id="Layer_1" data-name="Layer 1" xmlns="http://www.w3.org/2000/svg" viewBox="0 0 260.9 180.02"><defs><style>.cls-1{fill:#99d2ae;}.cls-2{fill:#0cae5d;}.cls-3{fill:#ffd362;}</style></defs><path class="cls-1" d="M48.92,133.54h0a26.09,26.09,0,0,1-25.76-26.42h0l52.18.67h0A26.09,26.09,0,0,1,48.92,133.54Z" transform="translate(-23.16 -53.26)"/><path class="cls-2" d="M101.09,134.22h0a26.09,26.09,0,0,1-25.75-26.43h0l52.17.68h0A26.09,26.09,0,0,1,101.09,134.22Z" transform="translate(-23.16 -53.26)"/><path class="cls-3" d="M153.27,134.89h0a26.1,26.1,0,0,1-25.76-26.42h0l52.18.67h0A26.1,26.1,0,0,1,153.27,134.89Z" transform="translate(-23.16 -53.26)"/><path class="cls-2" d="M205.44,135.56h0a26.08,26.08,0,0,1-25.75-26.42h0l52.18.67h0A26.09,26.09,0,0,1,205.44,135.56Z" transform="translate(-23.16 -53.26)"/><path class="cls-3" d="M257.62,136.23h0a26.08,26.08,0,0,1-25.75-26.42h0l52.17.67h0A26.08,26.08,0,0,1,257.62,136.23Z" transform="translate(-23.16 -53.26)"/><path class="cls-1" d="M106.68,53.26H75.39l-52.23,46.9H75.34Z" transform="translate(-23.16 -53.26)"/><path class="cls-2" d="M138,53.26H106.68l-31.34,46.9h52.18Q132.74,76.72,138,53.26Z" transform="translate(-23.16 -53.26)"/><path class="cls-3" d="M169.26,53.26H138q-5.22,23.45-10.45,46.9H179.7Z" transform="translate(-23.16 -53.26)"/><path class="cls-2" d="M200.55,53.26H169.26l10.44,46.9h52.19Z" transform="translate(-23.16 -53.26)"/><path class="cls-3" d="M231.84,53.26H200.55l31.34,46.9h52.17Z" transform="translate(-23.16 -53.26)"/><rect class="cls-2" x="4.16" y="165.79" width="249.45" height="14.23"/></svg>