<svg id="Layer_1" data-name="Layer 1" xmlns="http://www.w3.org/2000/svg" viewBox="0 0 259.77 104.63"><defs><style>.cls-1{font-size:71.95px;fill:#0cae5e;font-family:Ayuthaya;}.cls-2{letter-spacing:-0.02em;}.cls-3{letter-spacing:-0.1em;}.cls-4{fill:#99d2ae;}.cls-5{fill:#0cae5d;}.cls-6{fill:#ffd362;}.cls-7{font-size:33.46px;fill:#955724;font-family:NeusaNextStd-Bold, Neusa Next Std;font-weight:700;letter-spacing:0.14em;}.cls-8{letter-spacing:0.05em;}.cls-9{fill:none;stroke:#0dae5d;}</style></defs><text class="cls-1" transform="translate(0 69.2)">a<tspan class="cls-2" x="43.17" y="0">pn</tspan><tspan class="cls-3" x="126.2" y="0">i</tspan></text><path class="cls-4" d="M239.24,33.33h0a10,10,0,0,1-9.9-10.16h0l20,.26h0A10,10,0,0,1,239.24,33.33Z" transform="translate(-74.53 -2.47)"/><path class="cls-5" d="M259.29,33.59h0a10,10,0,0,1-9.9-10.16h0l20.06.26h0A10,10,0,0,1,259.29,33.59Z" transform="translate(-74.53 -2.47)"/><path class="cls-6" d="M279.35,33.85h0a10,10,0,0,1-9.9-10.16h0l20.06.26h0A10,10,0,0,1,279.35,33.85Z" transform="translate(-74.53 -2.47)"/><path class="cls-5" d="M299.4,34.1h0A10,10,0,0,1,289.51,24h0l20.05.26h0A10,10,0,0,1,299.4,34.1Z" transform="translate(-74.53 -2.47)"/><path class="cls-6" d="M319.46,34.36h0a10,10,0,0,1-9.9-10.15h0l20.06.25h0A10,10,0,0,1,319.46,34.36Z" transform="translate(-74.53 -2.47)"/><path class="cls-4" d="M261.44,2.47h-12l-20.07,18h20Z" transform="translate(-74.53 -2.47)"/><path class="cls-5" d="M273.47,2.47h-12l-12.05,18h20.06Z" transform="translate(-74.53 -2.47)"/><path class="cls-6" d="M285.5,2.47h-12l-4,18h20.06Q287.5,11.49,285.5,2.47Z" transform="translate(-74.53 -2.47)"/><path class="cls-5" d="M297.52,2.47h-12q2,9,4,18h20.06Z" transform="translate(-74.53 -2.47)"/><path class="cls-6" d="M309.55,2.47h-12l12.05,18h20.06Z" transform="translate(-74.53 -2.47)"/><text class="cls-7" transform="translate(155.47 58.89) scale(0.87 1)">GUL<tspan class="cls-8" x="74.88" y="0">L</tspan><tspan x="94.25" y="0">Y</tspan></text><rect class="cls-5" x="132.99" y="63.73" width="120.91" height="5.47"/><path id="location-pin" class="cls-9" d="M220.33,10.38A6.58,6.58,0,0,0,213.76,17c0,5.15,6,10.46,6.21,10.68a.56.56,0,0,0,.73,0c.25-.22,6.2-5.53,6.2-10.68A6.57,6.57,0,0,0,220.33,10.38Z" transform="translate(-74.53 -2.47)"/></svg>